<svg id="eaAqBZUrzME1" xmlns="http://www.w3.org/2000/svg" viewBox="0 0 1121.806 699.082" shape-rendering="geometricPrecision" text-rendering="geometricPrecision"><circle id="eaAqBZUrzME2" r="254" transform="translate(852.806 367.999)" fill="#F2F2F2" stroke="none" stroke-width="1"/><circle id="eaAqBZUrzME3" r="97" transform="translate(119.32 -20.827)" fill="#FF6584" stroke="none" stroke-width="1"/><circle id="eaAqBZUrzME4" r="254" transform="translate(311.806 266.999)" fill="#F2F2F2" stroke="none" stroke-width="1"/><ellipse id="eaAqBZUrzME5" rx="279" ry="15" transform="translate(299.806 520)" fill="#3F3D56" stroke="none" stroke-width="1"/><ellipse id="eaAqBZUrzME6" rx="209" ry="10.345" transform="translate(243.806 520.517)" opacity=".1" fill="#000" stroke="none" stroke-width="1"/><ellipse id="eaAqBZUrzME7" rx="279" ry="16.5" transform="translate(842.806 624.5)" fill="#3F3D56" stroke="none" stroke-width="1"/><ellipse id="eaAqBZUrzME8" rx="209" ry="11.379" transform="translate(786.806 625.069)" opacity=".1" fill="#000" stroke="none" stroke-width="1"/><ellipse id="eaAqBZUrzME9" rx="178.043" ry="9" transform="translate(400.903 586)" fill="#3F3D56" stroke="none" stroke-width="1"/><ellipse id="eaAqBZUrzME10" rx="85.903" ry="4.342" transform="translate(85.903 556)" fill="#3F3D56" stroke="none" stroke-width="1"/><ellipse id="eaAqBZUrzME11" rx="159.879" ry="8.082" transform="translate(952.927 691)" fill="#3F3D56" stroke="none" stroke-width="1"/><rect id="eaAqBZUrzME12" width="320" height="190" rx="0" ry="0" transform="translate(615.806 433)" fill="#3F3D56" stroke="none" stroke-width="1"/><circle id="eaAqBZUrzME13" r="72" transform="matrix(0 1 1 0 713.806 535)" fill="#6C63FF" stroke="none" stroke-width="1"/><rect id="eaAqBZUrzME14" width="24" height="24" rx="0" ry="0" transform="translate(812.806 463)" fill="#6C63FF" stroke="none" stroke-width="1"/><rect id="eaAqBZUrzME15" width="24" height="24" rx="0" ry="0" transform="translate(842.806 463)" opacity=".5" fill="#6C63FF" stroke="none" stroke-width="1"/><rect id="eaAqBZUrzME16" width="24" height="24" rx="0" ry="0" transform="translate(872.806 463)" opacity=".2" fill="#6C63FF" stroke="none" stroke-width="1"/><rect id="eaAqBZUrzME17" width="24" height="24" rx="0" ry="0" transform="translate(812.806 493)" fill="#2F2E41" stroke="none" stroke-width="1"/><rect id="eaAqBZUrzME18" width="24" height="24" rx="0" ry="0" transform="translate(842.806 493)" opacity=".5" fill="#2F2E41" stroke="none" stroke-width="1"/><rect id="eaAqBZUrzME19" width="24" height="24" rx="0" ry="0" transform="translate(872.806 493)" opacity=".2" fill="#2F2E41" stroke="none" stroke-width="1"/><rect id="eaAqBZUrzME20" width="24" height="24" rx="0" ry="0" transform="translate(812.806 523)" fill="#FF6584" stroke="none" stroke-width="1"/><rect id="eaAqBZUrzME21" width="24" height="24" rx="0" ry="0" transform="translate(842.806 523)" opacity=".5" fill="#FF6584" stroke="none" stroke-width="1"/><rect id="eaAqBZUrzME22" width="24" height="24" rx="0" ry="0" transform="translate(872.806 523)" opacity=".2" fill="#FF6584" stroke="none" stroke-width="1"/><path id="eaAqBZUrzME23" d="M757.903 558.46v144c39.765 0 74-32.236 74-72 0-39.765-34.236-72-74-72Z" transform="translate(-39.097 -100.459)" opacity=".5" fill="#3F3D56" stroke="none" stroke-width="1"/><path id="eaAqBZUrzME24" d="M1043.403 546.96s42 19 27 41-60 64-61 73-7 17-7 17-20-21-18-23 22-21 23-26 31-44 31-44l-27-24Z" transform="translate(-39.097 -100.459)" fill="#FFB9B9" stroke="none" stroke-width="1"/><path id="eaAqBZUrzME25" d="M1043.403 546.96s42 19 27 41-60 64-61 73-7 17-7 17-20-21-18-23 22-21 23-26 31-44 31-44l-27-24Z" transform="translate(-39.097 -100.459)" opacity=".1" fill="#000" stroke="none" stroke-width="1"/><g id="eaAqBZUrzME26"><g id="eaAqBZUrzME27"><g id="eaAqBZUrzME28" stroke="none" stroke-width="1"><path id="eaAqBZUrzME29" d="M990.403 588.96s29 12 27 31 35 73 35 73 4 13 3 17 26 3 26 3v-9s-21-36-23-46-14-49-14-49-4-35-24-35a37.5 37.5 0 0 0-30 15Z" transform="translate(-39.097 -100.459)" fill="#FFB9B9"/><path id="eaAqBZUrzME30" d="M1059.403 708.96s-6-3-7 0-7 18 0 20 76 4 74 0-13-9-20-11-25-17-25-17-10 13-22 8Z" transform="translate(-39.097 -100.459)" fill="#2F2E41"/></g></g></g><path id="eaAqBZUrzME31" d="M991.903 498.46s60 49 58 53-31 19-36 20-40.378-73-40.378-73Z" transform="translate(-39.097 -100.459)" fill="#2F2E41" stroke="none" stroke-width="1"/><path id="eaAqBZUrzME32" d="M991.903 498.46s60 49 58 53-31 19-36 20-40.378-73-40.378-73Z" transform="translate(-39.097 -100.459)" opacity=".1" fill="#000" stroke="none" stroke-width="1"/><path id="eaAqBZUrzME33" d="M926.903 508.46s-6 27 10 38 43 54 46 54 46-23 44-27-24-39-24-39l-7-37s-61-2-69 11Z" transform="translate(-39.097 -100.459)" fill="#2F2E41" stroke="none" stroke-width="1"/><path id="eaAqBZUrzME34" d="m991.903 420.46 9 58 16 41s24 25 10 27-22-27-22-27l-13-24Z" transform="translate(-39.097 -100.459)" fill="#FFB9B9" stroke="none" stroke-width="1"/><path id="eaAqBZUrzME35" d="m991.903 420.46 9 58 16 41s24 25 10 27-22-27-22-27l-13-24Z" transform="translate(-39.097 -100.459)" opacity=".1" fill="#000" stroke="none" stroke-width="1"/><path id="eaAqBZUrzME36" d="M958.403 355.96s0 21-7 23 28 29 28 29-4-35 10-44Z" transform="translate(-39.097 -100.459)" fill="#FFB9B9" stroke="none" stroke-width="1"/><path id="eaAqBZUrzME37" d="M958.403 355.96s0 21-7 23 28 29 28 29-4-35 10-44Z" transform="translate(-39.097 -100.459)" opacity=".1" fill="#000" stroke="none" stroke-width="1"/><circle id="eaAqBZUrzME38" r="23" transform="translate(935.306 249.5)" fill="#FFB9B9" stroke="none" stroke-width="1"/><path id="eaAqBZUrzME39" d="M975.403 397.96s-21-26-24-25-25 23-27 30-6 57-3 67 3 36 2 38-7 7-1 7 27-15 41-12 33-1 34-3-1-54 0-58-2-24-3-28-1-20-11-24l-4.264-.422-.239 9.891Z" transform="translate(-39.097 -100.459)" fill="#6C63FF" stroke="none" stroke-width="1"/><path id="eaAqBZUrzME40" d="M931.403 449.96s2 31 17 44 47 35 49 39 21 25 25 16a14.962 14.962 0 0 0 .802-8.868 22.053 22.053 0 0 0-9.904-14.412l-8.898-5.72-44-46-2-24Z" transform="translate(-39.097 -100.459)" fill="#FFB9B9" stroke="none" stroke-width="1"/><path id="eaAqBZUrzME41" d="M988.903 651.46s-11.5-2.5-15.5 4.5 4 26 4 26 23 48 27 42-3-28-3-28 10-22 6-23-18.5-9.5-18.5-21.5Z" transform="translate(-39.097 -100.459)" fill="#2F2E41" stroke="none" stroke-width="1"/><path id="eaAqBZUrzME42" d="M997.572 331.705a6.16 6.16 0 0 0-2.671-3.487 14.136 14.136 0 0 0-.564-4.602c-1.47-4.344-4.951-4.095-8.236-6.016-1.425-.833-1.337-1.57-2.079-2.939a10.907 10.907 0 0 0-4.202-4.287c-2.107-1.343-4.332-2.726-6.825-2.896-5.239-.357-9.256 4.57-14.263 6.152-2.207.697-4.579.726-6.797 1.385-2.22.659-4.433 2.232-4.763 4.523-.153 1.058.116 2.143-.038 3.2-.308 2.101-2.152 3.573-3.386 5.302-2.73 3.822-2.417 9.221-.235 13.38.46.86.986 1.684 1.574 2.463a15.15 15.15 0 0 0 1.662 5.626c2.182 4.158 5.938 7.266 9.861 9.848a23.277 23.277 0 0 1-.582-4.2c-.055-.471.006-.949.179-1.391.437-.913 1.591-1.156 2.472-1.657 1.823-1.036 2.538-3.328 2.59-5.425.053-2.096-.391-4.196-.171-6.281a3.432 3.432 0 0 1 1.175-2.525 4.059 4.059 0 0 1 2.215-.528c3.735-.153 7.638-.221 10.933-1.988a16.203 16.203 0 0 1 3.404-1.721c2.8-.73 5.662 1.232 7.276 3.634 1.613 2.402 2.418 5.26 3.907 7.742 1.489 2.482 4.061 4.694 6.94 4.4.328.001.64-.138.86-.382.124-.223.18-.478.158-.732l.161-11.005a16.634 16.634 0 0 0-.555-5.593Z" transform="translate(-39.097 -100.459)" fill="#2F2E41" stroke="none" stroke-width="1"/><path id="eaAqBZUrzME43" d="M940.403 398.96s22 10 21 31 6 23-11 25-21 0-22 2-7-46-3-51 15-7 15-7Z" transform="translate(-39.097 -100.459)" fill="#6C63FF" stroke="none" stroke-width="1"/><circle id="eaAqBZUrzME44" r="32" transform="translate(458.806 97)" fill="#2F2E41" stroke="none" stroke-width="1"/><path id="eaAqBZUrzME45" d="m519.403 547.96-18 49s-15 12-6 16 27-4 27-4l14-36-2-25Z" transform="translate(-39.097 -100.459)" fill="#2F2E41" stroke="none" stroke-width="1"/><path id="eaAqBZUrzME46" d="m519.403 547.96-18 49s-15 12-6 16 27-4 27-4l14-36-2-25Z" transform="translate(-39.097 -100.459)" opacity=".1" fill="#000" stroke="none" stroke-width="1"/><path id="eaAqBZUrzME47" d="m520.903 257.46 15 2s7 55 4 59-18 20-24 16 5-77 5-77Z" transform="translate(-39.097 -100.459)" fill="#575A89" stroke="none" stroke-width="1"/><path id="eaAqBZUrzME48" d="M377.403 357.96s-21 9-25 10-10 11-3 13 34-18 34-18Z" transform="translate(-39.097 -100.459)" fill="#A0616A" stroke="none" stroke-width="1"/><path id="eaAqBZUrzME49" d="m526.403 567.96 11 41s1 15 6 16 20-5 20-7-6-18-6-18 0-12-6-17-11.406-21.75-11.406-21.75Z" transform="translate(-39.097 -100.459)" fill="#2F2E41" stroke="none" stroke-width="1"/><path id="eaAqBZUrzME50" d="M540.403 473.96c2.02 4.71 1.77 38.88-.44 61.62-1.07 11.05-2.6 19.4-4.56 20.38l-14.33-3.58-5.67-1.42-.15-12.44-.85-68.56-17-71v-18l43 4 6.82 10.71.18.29s-10 71-7 78Z" transform="translate(-39.097 -100.459)" fill="#2F2E41" stroke="none" stroke-width="1"/><path id="eaAqBZUrzME51" d="M531.403 495.96c2.14 3.21 5.71 22.43 8.56 39.62-1.07 11.05-2.6 19.4-4.56 20.38l-14.33-3.58c-.22-.46-.44-.94-.67-1.42-1.83-3.84-3.55-8.08-5.15-12.44l-.85-68.56-17-71v-18l43 4 6.82 10.71-39.82-2.71 9 39 11 41s0 17 4 23Z" transform="translate(-39.097 -100.459)" opacity=".1" fill="#000" stroke="none" stroke-width="1"/><path id="eaAqBZUrzME52" d="M460.403 340.96s-14 31 6 74a874.09 874.09 0 0 1 33 82c9.61 27.871 7 33 17 54s8 22 8 22l16-9s-9-62-13-68-4-23-4-23l-11-41-9-39 44 3s0-57-20-68Z" transform="translate(-39.097 -100.459)" fill="#2F2E41" stroke="none" stroke-width="1"/><path id="eaAqBZUrzME53" d="M476.903 212.46s0 16-5 17-15 1-18 6 23 71 23 71l27-17 9-45s-13-8-13-12v-18Z" transform="translate(-39.097 -100.459)" fill="#A0616A" stroke="none" stroke-width="1"/><path id="eaAqBZUrzME54" d="M476.903 212.46s0 16-5 17-15 1-18 6 23 71 23 71l27-17 9-45s-13-8-13-12v-18Z" transform="translate(-39.097 -100.459)" opacity=".1" fill="#000" stroke="none" stroke-width="1"/><circle id="eaAqBZUrzME55" r="24" transform="translate(453.306 105.5)" fill="#A0616A" stroke="none" stroke-width="1"/><path id="eaAqBZUrzME56" d="M479.903 286.46s-9-57-11-57-30 6-32 7-9 10-9 10l14 40s6 28 10 33 12 19 8 21-8 5-4 5 37-6 39-3 35-11 35-12-4-48-4-48l10-23-30-21Z" transform="translate(-39.097 -100.459)" fill="#575A89" stroke="none" stroke-width="1"/><path id="eaAqBZUrzME57" d="m437.903 241.46-10 5s-28 64-30 65-12 20-13 24-3 17-6 19a51.953 51.953 0 0 1-5 3c-1.722.905 6 10 9 10s13-14 13-14 22 14 28 3 21-81 21-81Z" transform="translate(-39.097 -100.459)" fill="#575A89" stroke="none" stroke-width="1"/><path id="eaAqBZUrzME58" d="M516.403 271.96s-14-34-22-30 6 28 15 32Z" transform="translate(-39.097 -100.459)" fill="#A0616A" stroke="none" stroke-width="1"/><path id="eaAqBZUrzME59" d="m502.403 272.96 14.03-3.173 2.97 15.172s13 23 10 33-21 26-27 17-11-23-7-31 10-27 7-31Z" transform="translate(-39.097 -100.459)" opacity=".1" fill="#000" stroke="none" stroke-width="1"/><path id="eaAqBZUrzME60" d="m505.403 270.96 14.03-3.173 2.97 15.172s13 23 10 33-21 26-27 17-11-23-7-31 10-27 7-31Z" transform="translate(-39.097 -100.459)" fill="#575A89" stroke="none" stroke-width="1"/><ellipse id="eaAqBZUrzME61" rx="11.5" ry="24" transform="rotate(-64.899 301.07 -316.33)" fill="#2F2E41" stroke="none" stroke-width="1"/><circle id="eaAqBZUrzME62" r="14" transform="translate(477.806 70)" fill="#2F2E41" stroke="none" stroke-width="1"/><path id="eaAqBZUrzME63" d="M503.903 165.46a14 14 0 0 1 12.5-13.918 14 14 0 1 0 0 27.834 14 14 0 0 1-12.5-13.917Z" transform="translate(-39.097 -100.459)" fill="#2F2E41" stroke="none" stroke-width="1"/><rect id="eaAqBZUrzME64" width="350" height="243" rx="0" ry="0" transform="translate(-.818 252.35)" fill="#3F3D56" stroke="none" stroke-width="1"/><rect id="eaAqBZUrzME65" width="46" height="46" rx="0" ry="0" transform="translate(92.806 301)" fill="#F2F2F2" stroke="none" stroke-width="1"/><rect id="eaAqBZUrzME66" width="46" height="46" rx="0" ry="0" transform="translate(92.806 376)" fill="#6C63FF" stroke="none" stroke-width="1"/><rect id="eaAqBZUrzME67" width="46" height="46" rx="0" ry="0" transform="translate(92.806 451)" fill="#F2F2F2" stroke="none" stroke-width="1"/><rect id="eaAqBZUrzME68" width="219" height="4" rx="0" ry="0" transform="translate(160.806 315.5)" fill="#F2F2F2" stroke="none" stroke-width="1"/><rect id="eaAqBZUrzME69" width="68" height="4" rx="0" ry="0" transform="translate(160.806 328.5)" fill="#F2F2F2" stroke="none" stroke-width="1"/><rect id="eaAqBZUrzME70" width="219" height="4" rx="0" ry="0" transform="translate(160.806 390.5)" fill="#F2F2F2" stroke="none" stroke-width="1"/><rect id="eaAqBZUrzME71" width="68" height="4" rx="0" ry="0" transform="translate(160.806 403.5)" fill="#F2F2F2" stroke="none" stroke-width="1"/><rect id="eaAqBZUrzME72" width="219" height="4" rx="0" ry="0" transform="translate(160.806 465.5)" fill="#F2F2F2" stroke="none" stroke-width="1"/><rect id="eaAqBZUrzME73" width="68" height="4" rx="0" ry="0" transform="translate(160.806 478.5)" fill="#F2F2F2" stroke="none" stroke-width="1"/><path id="eaAqBZUrzME74" d="M1028.903 769.392c0 20.356-12.1 27.463-27.028 27.463a42.753 42.753 0 0 1-3.09-.107c-13.473-.952-23.938-8.425-23.938-27.356 0-19.588 25.03-44.308 26.916-46.141l.002-.003c.072-.072.11-.107.11-.107s27.028 25.897 27.028 46.25Z" transform="translate(-39.097 -100.459)" fill="#6C63FF" stroke="none" stroke-width="1"/><path id="eaAqBZUrzME75" d="m1000.89 793.74 9.886-13.81-9.911 15.328-.025 1.585a42.753 42.753 0 0 1-2.055-.095l1.065-20.364-.008-.159.018-.027.102-1.926-9.936-15.366 9.966 13.924.024.408.804-15.386-8.505-15.879 8.61 13.18.838-31.902.002-.11v.108l-.139 25.155 8.468-9.973-8.503 12.14-.224 13.776 7.908-13.222-7.94 15.25-.124 7.659 11.475-18.404-11.52 21.075Z" transform="translate(-39.097 -100.459)" fill="#3F3D56" stroke="none" stroke-width="1"/><path id="eaAqBZUrzME76" d="M151.903 630.392c0 20.356-12.1 27.463-27.028 27.463a42.753 42.753 0 0 1-3.09-.107c-13.473-.952-23.938-8.425-23.938-27.356 0-19.588 25.03-44.308 26.916-46.141l.002-.003c.072-.072.11-.107.11-.107s27.028 25.897 27.028 46.25Z" transform="translate(-39.097 -100.459)" fill="#6C63FF" stroke="none" stroke-width="1"/><path id="eaAqBZUrzME77" d="m123.89 654.74 9.886-13.81-9.911 15.328-.025 1.585a42.753 42.753 0 0 1-2.055-.095l1.065-20.364-.008-.159.018-.027.102-1.926-9.936-15.366 9.966 13.924.024.408.804-15.386-8.505-15.879 8.61 13.18.838-31.902.002-.11v.108l-.139 25.155 8.468-9.973-8.503 12.14-.224 13.776 7.908-13.222-7.94 15.25-.124 7.659 11.475-18.404-11.52 21.075Z" transform="translate(-39.097 -100.459)" fill="#3F3D56" stroke="none" stroke-width="1"/><script><![CDATA[!function(t,n){"object"==typeof exports&&"undefined"!=typeof module?module.exports=n():"function"==typeof define&&define.amd?define(n):(t="undefined"!=typeof globalThis?globalThis:t||self).__SVGATOR_PLAYER__=n()}(this,(function(){"use strict";function t(n){return(t="function"==typeof Symbol&&"symbol"==typeof Symbol.iterator?function(t){return typeof t}:function(t){return t&&"function"==typeof Symbol&&t.constructor===Symbol&&t!==Symbol.prototype?"symbol":typeof t})(n)}function n(t,n){if(!(t instanceof n))throw new TypeError("Cannot call a class as a function")}function r(t,n){for(var r=0;r<n.length;r++){var e=n[r];e.enumerable=e.enumerable||!1,e.configurable=!0,"value"in e&&(e.writable=!0),Object.defineProperty(t,e.key,e)}}function e(t,n,e){return n&&r(t.prototype,n),e&&r(t,e),t}function i(t){return(i=Object.setPrototypeOf?Object.getPrototypeOf:function(t){return t.__proto__||Object.getPrototypeOf(t)})(t)}function o(t,n){return(o=Object.setPrototypeOf||function(t,n){return t.__proto__=n,t})(t,n)}function u(t,n){return!n||"object"!=typeof n&&"function"!=typeof n?function(t){if(void 0===t)throw new ReferenceError("this hasn't been initialised - super() hasn't been called");return t}(t):n}function a(t){var n=function(){if("undefined"==typeof Reflect||!Reflect.construct)return!1;if(Reflect.construct.sham)return!1;if("function"==typeof Proxy)return!0;try{return Boolean.prototype.valueOf.call(Reflect.construct(Boolean,[],(function(){}))),!0}catch(t){return!1}}();return function(){var r,e=i(t);if(n){var o=i(this).constructor;r=Reflect.construct(e,arguments,o)}else r=e.apply(this,arguments);return u(this,r)}}function l(t,n,r){return(l="undefined"!=typeof Reflect&&Reflect.get?Reflect.get:function(t,n,r){var e=function(t,n){for(;!Object.prototype.hasOwnProperty.call(t,n)&&null!==(t=i(t)););return t}(t,n);if(e){var o=Object.getOwnPropertyDescriptor(e,n);return o.get?o.get.call(r):o.value}})(t,n,r||t)}var f=s(Math.pow(10,-6));function s(t){var n=arguments.length>1&&void 0!==arguments[1]?arguments[1]:6;if(Number.isInteger(t))return t;var r=Math.pow(10,n);return Math.round((+t+Number.EPSILON)*r)/r}function c(t,n){var r=arguments.length>2&&void 0!==arguments[2]?arguments[2]:f;return Math.abs(t-n)<r}var h=Math.PI/180;function v(t){return t}function y(t,n,r){var e=1-r;return 3*r*e*(t*e+n*r)+r*r*r}function d(){var t=arguments.length>0&&void 0!==arguments[0]?arguments[0]:0,n=arguments.length>1&&void 0!==arguments[1]?arguments[1]:0,r=arguments.length>2&&void 0!==arguments[2]?arguments[2]:1,e=arguments.length>3&&void 0!==arguments[3]?arguments[3]:1;return t<0||t>1||r<0||r>1?null:c(t,n)&&c(r,e)?v:function(i){if(i<=0)return t>0?i*n/t:0===n&&r>0?i*e/r:0;if(i>=1)return r<1?1+(i-1)*(e-1)/(r-1):1===r&&t<1?1+(i-1)*(n-1)/(t-1):1;for(var o,u=0,a=1;u<a;){var l=y(t,r,o=(u+a)/2);if(c(i,l))break;l<i?u=o:a=o}return y(n,e,o)}}function g(){return 1}function p(t){return 1===t?1:0}function m(){var t=arguments.length>0&&void 0!==arguments[0]?arguments[0]:1,n=arguments.length>1&&void 0!==arguments[1]?arguments[1]:0;if(1===t){if(0===n)return p;if(1===n)return g}var r=1/t;return function(t){return t>=1?1:(t+=n*r)-t%r}}function b(t,n,r){return t>=.5?r:n}function w(t,n,r){return 0===t||n===r?n:t*(r-n)+n}function x(t,n,r){var e=w(t,n,r);return e<=0?0:e}function k(t,n,r){return 0===t?n:1===t?r:{x:w(t,n.x,r.x),y:w(t,n.y,r.y)}}function A(t,n,r){var e=function(t,n,r){return Math.round(w(t,n,r))}(t,n,r);return e<=0?0:e>=255?255:e}function S(t,n,r){return 0===t?n:1===t?r:{r:A(t,n.r,r.r),g:A(t,n.g,r.g),b:A(t,n.b,r.b),a:w(t,null==n.a?1:n.a,null==r.a?1:r.a)}}function _(t,n,r){if(0===t)return n;if(1===t)return r;var e=n.length;if(e!==r.length)return b(t,n,r);for(var i=[],o=0;o<e;o++)i.push(S(t,n[o],r[o]));return i}function O(t,n){for(var r=[],e=0;e<t;e++)r.push(n);return r}function M(t,n){if(--n<=0)return t;var r=(t=Object.assign([],t)).length;do{for(var e=0;e<r;e++)t.push(t[e])}while(--n>0);return t}var j,P=function(){function t(r){n(this,t),this.list=r,this.length=r.length}return e(t,[{key:"setAttribute",value:function(t,n){for(var r=this.list,e=0;e<this.length;e++)r[e].setAttribute(t,n)}},{key:"removeAttribute",value:function(t){for(var n=this.list,r=0;r<this.length;r++)n[r].removeAttribute(t)}},{key:"style",value:function(t,n){for(var r=this.list,e=0;e<this.length;e++)r[e].style[t]=n}}]),t}(),I=/-./g,E=function(t,n){return n.toUpperCase()};function F(t){return"function"==typeof t?t:b}function N(t){return t?"function"==typeof t?t:Array.isArray(t)?function(t){var n=arguments.length>1&&void 0!==arguments[1]?arguments[1]:v;if(!Array.isArray(t))return n;switch(t.length){case 1:return m(t[0])||n;case 2:return m(t[0],t[1])||n;case 4:return d(t[0],t[1],t[2],t[3])||n}return n}(t,null):function(t,n){var r=arguments.length>2&&void 0!==arguments[2]?arguments[2]:v;switch(t){case"linear":return v;case"steps":return m(n.steps||1,n.jump||0)||r;case"bezier":case"cubic-bezier":return d(n.x1||0,n.y1||0,n.x2||0,n.y2||0)||r}return r}(t.type,t.value,null):null}function B(t,n,r){var e=arguments.length>3&&void 0!==arguments[3]&&arguments[3],i=n.length-1;if(t<=n[0].t)return e?[0,0,n[0].v]:n[0].v;if(t>=n[i].t)return e?[i,1,n[i].v]:n[i].v;var o,u=n[0],a=null;for(o=1;o<=i;o++){if(!(t>n[o].t)){a=n[o];break}u=n[o]}return null==a?e?[i,1,n[i].v]:n[i].v:u.t===a.t?e?[o,1,a.v]:a.v:(t=(t-u.t)/(a.t-u.t),u.e&&(t=u.e(t)),e?[o,t,r(t,u.v,a.v)]:r(t,u.v,a.v))}function R(t,n){var r=arguments.length>2&&void 0!==arguments[2]?arguments[2]:null;return t&&t.length?"function"!=typeof n?null:("function"!=typeof r&&(r=null),function(e){var i=B(e,t,n);return null!=i&&r&&(i=r(i)),i}):null}function q(t,n){return t.t-n.t}function T(n,r,e,i,o){var u,a="@"===e[0],l="#"===e[0],f=j[e],s=b;switch(a?(u=e.substr(1),e=u.replace(I,E)):l&&(e=e.substr(1)),t(f)){case"function":if(s=f(i,o,B,N,e,a,r,n),l)return s;break;case"string":s=R(i,F(f));break;case"object":if((s=R(i,F(f.i),f.f))&&"function"==typeof f.u)return f.u(r,s,e,a,n)}return s?function(t,n,r){var e=arguments.length>3&&void 0!==arguments[3]&&arguments[3];if(e)return t instanceof P?function(e){return t.style(n,r(e))}:function(e){return t.style[n]=r(e)};if(Array.isArray(n)){var i=n.length;return function(e){var o=r(e);if(null==o)for(var u=0;u<i;u++)t[u].removeAttribute(n);else for(var a=0;a<i;a++)t[a].setAttribute(n,o)}}return function(e){var i=r(e);null==i?t.removeAttribute(n):t.setAttribute(n,i)}}(r,e,s,a):null}function L(n,r,e,i){if(!i||"object"!==t(i))return null;var o=null,u=null;return Array.isArray(i)?u=function(t){if(!t||!t.length)return null;for(var n=0;n<t.length;n++)t[n].e&&(t[n].e=N(t[n].e));return t.sort(q)}(i):(u=i.keys,o=i.data||null),u?T(n,r,e,u,o):null}function C(t,n,r){if(!r)return null;var e=[];for(var i in r)if(r.hasOwnProperty(i)){var o=L(t,n,i,r[i]);o&&e.push(o)}return e.length?e:null}function z(t,n){if(!n.duration||n.duration<0)return null;var r=function(t,n){if(!n)return null;var r=[];if(Array.isArray(n))for(var e=n.length,i=0;i<e;i++){var o=n[i];if(2===o.length){var u=null;if("string"==typeof o[0])u=t.getElementById(o[0]);else if(Array.isArray(o[0])){u=[];for(var a=0;a<o[0].length;a++)if("string"==typeof o[0][a]){var l=t.getElementById(o[0][a]);l&&u.push(l)}u=u.length?1===u.length?u[0]:new P(u):null}if(u){var f=C(t,u,o[1]);f&&(r=r.concat(f))}}}else for(var s in n)if(n.hasOwnProperty(s)){var c=t.getElementById(s);if(c){var h=C(t,c,n[s]);h&&(r=r.concat(h))}}return r.length?r:null}(t,n.elements);return r?function(t,n){var r=arguments.length>2&&void 0!==arguments[2]?arguments[2]:1/0,e=arguments.length>3&&void 0!==arguments[3]?arguments[3]:1,i=arguments.length>4&&void 0!==arguments[4]&&arguments[4],o=arguments.length>5&&void 0!==arguments[5]?arguments[5]:1,u=t.length,a=e>0?n:0;i&&r%2==0&&(a=n-a);var l=null;return function(f,s){var c=f%n,h=1+(f-c)/n;s*=e,i&&h%2==0&&(s=-s);var v=!1;if(h>r)c=a,v=!0,-1===o&&(c=e>0?0:n);else if(s<0&&(c=n-c),c===l)return!1;l=c;for(var y=0;y<u;y++)t[y](c);return v}}(r,n.duration,n.iterations||1/0,n.direction||1,!!n.alternate,n.fill||1):null}Number.isInteger||(Number.isInteger=function(t){return"number"==typeof t&&isFinite(t)&&Math.floor(t)===t}),Number.EPSILON||(Number.EPSILON=2220446049250313e-31);var D=function(){function t(r,e){var i=arguments.length>2&&void 0!==arguments[2]?arguments[2]:{};n(this,t),this._id=0,this._running=!1,this._rollingBack=!1,this._animations=r,this.duration=e.duration,this.alternate=e.alternate,this.fill=e.fill,this.iterations=e.iterations,this.direction=i.direction||1,this.speed=i.speed||1,this.fps=i.fps||100,this.offset=i.offset||0,this.rollbackStartOffset=0}return e(t,[{key:"_rollback",value:function(){var t=this,n=1/0,r=null;this.rollbackStartOffset=this.offset,this._rollingBack||(this._rollingBack=!0,this._running=!0);this._id=window.requestAnimationFrame((function e(i){if(t._rollingBack){null==r&&(r=i);var o=i-r,u=t.rollbackStartOffset-o,a=Math.round(u*t.speed);if(a>t.duration&&n!=1/0){var l=!!t.alternate&&a/t.duration%2>1,f=a%t.duration;a=(f+=l?t.duration:0)||t.duration}var s=t.fps?1e3/t.fps:0,c=Math.max(0,a);if(c<n-s){t.offset=c,n=c;for(var h=t._animations,v=h.length,y=0;y<v;y++)h[y](c,t.direction)}var d=!1;if(t.iterations>0&&-1===t.fill){var g=t.iterations*t.duration,p=g==a;a=p?0:a,t.offset=p?0:t.offset,d=a>g}a>0&&t.offset>=a&&!d?t._id=window.requestAnimationFrame(e):t.stop()}}))}},{key:"_start",value:function(){var t=this,n=arguments.length>0&&void 0!==arguments[0]?arguments[0]:0,r=-1/0,e=null,i={},o=function o(u){t._running=!0,null==e&&(e=u);var a=Math.round((u-e+n)*t.speed),l=t.fps?1e3/t.fps:0;if(a>r+l&&!t._rollingBack){t.offset=a,r=a;for(var f=t._animations,s=f.length,c=0,h=0;h<s;h++)i[h]?c++:(i[h]=f[h](a,t.direction),i[h]&&c++);if(c===s)return void t._stop()}t._id=window.requestAnimationFrame(o)};this._id=window.requestAnimationFrame(o)}},{key:"_stop",value:function(){this._id&&window.cancelAnimationFrame(this._id),this._running=!1,this._rollingBack=!1}},{key:"play",value:function(){!this._rollingBack&&this._running||(this._rollingBack=!1,this.rollbackStartOffset>this.duration&&(this.offset=this.rollbackStartOffset-(this.rollbackStartOffset-this.offset)%this.duration,this.rollbackStartOffset=0),this._start(this.offset))}},{key:"stop",value:function(){this._stop(),this.offset=0,this.rollbackStartOffset=0;var t=this.direction,n=this._animations;window.requestAnimationFrame((function(){for(var r=0;r<n.length;r++)n[r](0,t)}))}},{key:"reachedToEnd",value:function(){return this.iterations>0&&this.offset>=this.iterations*this.duration}},{key:"restart",value:function(){this._stop(),this.offset=0,this._start()}},{key:"pause",value:function(){this._stop()}},{key:"reverse",value:function(){this.direction=-this.direction}}],[{key:"build",value:function(n,r){return(n=function(t,n){if(j=n,!t||!t.root||!Array.isArray(t.animations))return null;for(var r=document.getElementsByTagName("svg"),e=!1,i=0;i<r.length;i++)if(r[i].id===t.root&&!r[i].svgatorAnimation){(e=r[i]).svgatorAnimation=!0;break}if(!e)return null;var o=t.animations.map((function(t){return z(e,t)})).filter((function(t){return!!t}));return o.length?{element:e,animations:o,animationSettings:t.animationSettings,options:t.options||void 0}:null}(n,r))?{el:n.element,options:n.options||{},player:new t(n.animations,n.animationSettings,n.options)}:null}}]),t}();function Q(t){return s(t)+""}function U(t){var n=arguments.length>1&&void 0!==arguments[1]?arguments[1]:" ";return t&&t.length?t.map(Q).join(n):""}function V(t){return t?null==t.a||t.a>=1?"rgb("+t.r+","+t.g+","+t.b+")":"rgba("+t.r+","+t.g+","+t.b+","+t.a+")":"transparent"}!function(){for(var t=0,n=["ms","moz","webkit","o"],r=0;r<n.length&&!window.requestAnimationFrame;++r)window.requestAnimationFrame=window[n[r]+"RequestAnimationFrame"],window.cancelAnimationFrame=window[n[r]+"CancelAnimationFrame"]||window[n[r]+"CancelRequestAnimationFrame"];window.requestAnimationFrame||(window.requestAnimationFrame=function(n){var r=Date.now(),e=Math.max(0,16-(r-t)),i=window.setTimeout((function(){n(r+e)}),e);return t=r+e,i},window.cancelAnimationFrame=window.clearTimeout)}();var G={f:null,i:function(t,n,r){return 0===t?n:1===t?r:{x:x(t,n.x,r.x),y:x(t,n.y,r.y)}},u:function(t,n){return function(r){var e=n(r);t.setAttribute("rx",Q(e.x)),t.setAttribute("ry",Q(e.y))}}},H={f:null,i:function(t,n,r){return 0===t?n:1===t?r:{width:x(t,n.width,r.width),height:x(t,n.height,r.height)}},u:function(t,n){return function(r){var e=n(r);t.setAttribute("width",Q(e.width)),t.setAttribute("height",Q(e.height))}}},Y=Math.sin,Z=Math.cos,J=Math.acos,K=Math.asin,W=Math.tan,X=Math.atan2,$=Math.PI/180,tt=180/Math.PI,nt=Math.sqrt,rt=function(){function t(){var r=arguments.length>0&&void 0!==arguments[0]?arguments[0]:1,e=arguments.length>1&&void 0!==arguments[1]?arguments[1]:0,i=arguments.length>2&&void 0!==arguments[2]?arguments[2]:0,o=arguments.length>3&&void 0!==arguments[3]?arguments[3]:1,u=arguments.length>4&&void 0!==arguments[4]?arguments[4]:0,a=arguments.length>5&&void 0!==arguments[5]?arguments[5]:0;n(this,t),this.m=[r,e,i,o,u,a],this.i=null,this.w=null,this.s=null}return e(t,[{key:"determinant",get:function(){var t=this.m;return t[0]*t[3]-t[1]*t[2]}},{key:"isIdentity",get:function(){if(null===this.i){var t=this.m;this.i=1===t[0]&&0===t[1]&&0===t[2]&&1===t[3]&&0===t[4]&&0===t[5]}return this.i}},{key:"point",value:function(t,n){var r=this.m;return{x:r[0]*t+r[2]*n+r[4],y:r[1]*t+r[3]*n+r[5]}}},{key:"translateSelf",value:function(){var t=arguments.length>0&&void 0!==arguments[0]?arguments[0]:0,n=arguments.length>1&&void 0!==arguments[1]?arguments[1]:0;if(!t&&!n)return this;var r=this.m;return r[4]+=r[0]*t+r[2]*n,r[5]+=r[1]*t+r[3]*n,this.w=this.s=this.i=null,this}},{key:"rotateSelf",value:function(){var t=arguments.length>0&&void 0!==arguments[0]?arguments[0]:0;if(t%=360){var n=Y(t*=$),r=Z(t),e=this.m,i=e[0],o=e[1];e[0]=i*r+e[2]*n,e[1]=o*r+e[3]*n,e[2]=e[2]*r-i*n,e[3]=e[3]*r-o*n,this.w=this.s=this.i=null}return this}},{key:"scaleSelf",value:function(){var t=arguments.length>0&&void 0!==arguments[0]?arguments[0]:1,n=arguments.length>1&&void 0!==arguments[1]?arguments[1]:1;if(1!==t||1!==n){var r=this.m;r[0]*=t,r[1]*=t,r[2]*=n,r[3]*=n,this.w=this.s=this.i=null}return this}},{key:"skewSelf",value:function(t,n){if(n%=360,(t%=360)||n){var r=this.m,e=r[0],i=r[1],o=r[2],u=r[3];t&&(t=W(t*$),r[2]+=e*t,r[3]+=i*t),n&&(n=W(n*$),r[0]+=o*n,r[1]+=u*n),this.w=this.s=this.i=null}return this}},{key:"resetSelf",value:function(){var t=arguments.length>0&&void 0!==arguments[0]?arguments[0]:1,n=arguments.length>1&&void 0!==arguments[1]?arguments[1]:0,r=arguments.length>2&&void 0!==arguments[2]?arguments[2]:0,e=arguments.length>3&&void 0!==arguments[3]?arguments[3]:1,i=arguments.length>4&&void 0!==arguments[4]?arguments[4]:0,o=arguments.length>5&&void 0!==arguments[5]?arguments[5]:0,u=this.m;return u[0]=t,u[1]=n,u[2]=r,u[3]=e,u[4]=i,u[5]=o,this.w=this.s=this.i=null,this}},{key:"recomposeSelf",value:function(){var t=arguments.length>0&&void 0!==arguments[0]?arguments[0]:null,n=arguments.length>1&&void 0!==arguments[1]?arguments[1]:null,r=arguments.length>2&&void 0!==arguments[2]?arguments[2]:null,e=arguments.length>3&&void 0!==arguments[3]?arguments[3]:null,i=arguments.length>4&&void 0!==arguments[4]?arguments[4]:null;return this.isIdentity||this.resetSelf(),t&&(t.x||t.y)&&this.translateSelf(t.x,t.y),n&&this.rotateSelf(n),r&&(r.x&&this.skewSelf(r.x,0),r.y&&this.skewSelf(0,r.y)),!e||1===e.x&&1===e.y||this.scaleSelf(e.x,e.y),i&&(i.x||i.y)&&this.translateSelf(i.x,i.y),this}},{key:"decompose",value:function(){var t=arguments.length>0&&void 0!==arguments[0]?arguments[0]:0,n=arguments.length>1&&void 0!==arguments[1]?arguments[1]:0,r=this.m,e=r[0]*r[0]+r[1]*r[1],i=[[r[0],r[1]],[r[2],r[3]]],o=nt(e);if(0===o)return{origin:{x:s(r[4]),y:s(r[5])},translate:{x:s(t),y:s(n)},scale:{x:0,y:0},skew:{x:0,y:0},rotate:0};i[0][0]/=o,i[0][1]/=o;var u=r[0]*r[3]-r[1]*r[2]<0;u&&(o=-o);var a=i[0][0]*i[1][0]+i[0][1]*i[1][1];i[1][0]-=i[0][0]*a,i[1][1]-=i[0][1]*a;var l=nt(i[1][0]*i[1][0]+i[1][1]*i[1][1]);if(0===l)return{origin:{x:s(r[4]),y:s(r[5])},translate:{x:s(t),y:s(n)},scale:{x:s(o),y:0},skew:{x:0,y:0},rotate:0};i[1][0]/=l,i[1][1]/=l,a/=l;var f=0;return i[1][1]<0?(f=J(i[1][1])*tt,i[0][1]<0&&(f=360-f)):f=K(i[0][1])*tt,u&&(f=-f),a=X(a,nt(i[0][0]*i[0][0]+i[0][1]*i[0][1]))*tt,u&&(a=-a),{origin:{x:s(r[4]),y:s(r[5])},translate:{x:s(t),y:s(n)},scale:{x:s(o),y:s(l)},skew:{x:s(a),y:0},rotate:s(f)}}},{key:"toString",value:function(){return null===this.s&&(this.s="matrix("+this.m.map((function(t){return s(t)})).join(" ")+")"),this.s}}]),t}();Object.freeze({M:2,L:2,Z:0,H:1,V:1,C:6,Q:4,T:2,S:4,A:7});var et={},it=null;function ot(n){var r=function(){if(it)return it;if("object"!==("undefined"==typeof document?"undefined":t(document))||!document.createElementNS)return{};var n=document.createElementNS("http://www.w3.org/2000/svg","svg");return n&&n.style?(n.style.position="absolute",n.style.opacity="0.01",n.style.zIndex="-9999",n.style.left="-9999px",n.style.width="1px",n.style.height="1px",it={svg:n}):{}}().svg;if(!r)return function(t){return null};var e=document.createElementNS(r.namespaceURI,"path");e.setAttributeNS(null,"d",n),e.setAttributeNS(null,"fill","none"),e.setAttributeNS(null,"stroke","none"),r.appendChild(e);var i=e.getTotalLength();return function(t){var n=e.getPointAtLength(i*t);return{x:n.x,y:n.y}}}function ut(t){return et[t]?et[t]:et[t]=ot(t)}function at(t,n,r,e){if(!t||!e)return!1;var i=["M",t.x,t.y];if(n&&r&&(i.push("C"),i.push(n.x),i.push(n.y),i.push(r.x),i.push(r.y)),n?!r:r){var o=n||r;i.push("Q"),i.push(o.x),i.push(o.y)}return n||r||i.push("L"),i.push(e.x),i.push(e.y),i.join(" ")}function lt(t,n,r,e){var i=arguments.length>4&&void 0!==arguments[4]?arguments[4]:1,o=at(t,n,r,e),u=ut(o);try{return u(i)}catch(t){return null}}function ft(t,n,r,e){var i=1-e;return i*i*t+2*i*e*n+e*e*r}function st(t,n,r,e){return 2*(1-e)*(n-t)+2*e*(r-n)}function ct(t,n,r,e){var i=arguments.length>4&&void 0!==arguments[4]&&arguments[4],o=lt(t,n,null,r,e);return o||(o={x:ft(t.x,n.x,r.x,e),y:ft(t.y,n.y,r.y,e)}),i&&(o.a=ht(t,n,r,e)),o}function ht(t,n,r,e){return Math.atan2(st(t.y,n.y,r.y,e),st(t.x,n.x,r.x,e))}function vt(t,n,r,e,i){var o=i*i;return i*o*(e-t+3*(n-r))+3*o*(t+r-2*n)+3*i*(n-t)+t}function yt(t,n,r,e,i){var o=1-i;return 3*(o*o*(n-t)+2*o*i*(r-n)+i*i*(e-r))}function dt(t,n,r,e,i){var o=arguments.length>5&&void 0!==arguments[5]&&arguments[5],u=lt(t,n,r,e,i);return u||(u={x:vt(t.x,n.x,r.x,e.x,i),y:vt(t.y,n.y,r.y,e.y,i)}),o&&(u.a=gt(t,n,r,e,i)),u}function gt(t,n,r,e,i){return Math.atan2(yt(t.y,n.y,r.y,e.y,i),yt(t.x,n.x,r.x,e.x,i))}function pt(t,n,r){return t+(n-t)*r}function mt(t,n,r){var e=arguments.length>3&&void 0!==arguments[3]&&arguments[3],i={x:pt(t.x,n.x,r),y:pt(t.y,n.y,r)};return e&&(i.a=bt(t,n)),i}function bt(t,n){return Math.atan2(n.y-t.y,n.x-t.x)}function wt(t,n,r){var e=arguments.length>3&&void 0!==arguments[3]&&arguments[3];if(kt(n)){if(At(r))return ct(n,r.start,r,t,e)}else if(kt(r)){if(n.end)return ct(n,n.end,r,t,e)}else{if(n.end)return r.start?dt(n,n.end,r.start,r,t,e):ct(n,n.end,r,t,e);if(r.start)return ct(n,r.start,r,t,e)}return mt(n,r,t,e)}function xt(t,n,r){var e=wt(t,n,r,!0);return e.a=function(t){var n=arguments.length>1&&void 0!==arguments[1]&&arguments[1];return n?t+Math.PI:t}(e.a)/h,e}function kt(t){return!t.type||"corner"===t.type}function At(t){return null!=t.start&&!kt(t)}var St=new rt;var _t={f:Q,i:w},Ot={f:Q,i:function(t,n,r){var e=w(t,n,r);return e<=0?0:e>=1?1:e}};function Mt(t,n,r,e,i,o,u,a){return n=function(t,n,r){for(var e,i,o,u=t.length-1,a={},l=0;l<=u;l++)(e=t[l]).e&&(e.e=n(e.e)),e.v&&"g"===(i=e.v).t&&i.r&&(o=r.getElementById(i.r))&&(a[i.r]=o.querySelectorAll("stop"));return a}(t,e,a),function(e){var i,o=r(e,t,jt);return o?"c"===o.t?V(o.v):"g"===o.t?(n[o.r]&&function(t,n){for(var r=0,e=t.length;r<e;r++)t[r].setAttribute("stop-color",V(n[r]))}(n[o.r],o.v),(i=o.r)?"url(#"+i+")":"none"):"none":"none"}}function jt(t,n,r){if(0===t)return n;if(1===t)return r;if(n&&r){var e=n.t;if(e===r.t)switch(n.t){case"c":return{t:e,v:S(t,n.v,r.v)};case"g":if(n.r===r.r)return{t:e,v:_(t,n.v,r.v),r:n.r}}}return b(t,n,r)}var Pt={fill:Mt,"fill-opacity":Ot,stroke:Mt,"stroke-opacity":Ot,"stroke-width":_t,"stroke-dashoffset":{f:Q,i:w},"stroke-dasharray":{f:function(t){var n=arguments.length>1&&void 0!==arguments[1]?arguments[1]:" ";return t&&t.length>0&&(t=t.map((function(t){return s(t,4)}))),U(t,n)},i:function(t,n,r){var e,i,o,u=n.length,a=r.length;if(u!==a)if(0===u)n=O(u=a,0);else if(0===a)a=u,r=O(u,0);else{var l=(o=(e=u)*(i=a)/function(t,n){for(var r;n;)r=n,n=t%n,t=r;return t||1}(e,i))<0?-o:o;n=M(n,Math.floor(l/u)),r=M(r,Math.floor(l/a)),u=a=l}for(var f=[],c=0;c<u;c++)f.push(s(x(t,n[c],r[c])));return f}},opacity:Ot,transform:function(n,r,e,i){if(!(n=function(n,r){if(!n||"object"!==t(n))return null;var e=!1;for(var i in n)n.hasOwnProperty(i)&&(n[i]&&n[i].length?(n[i].forEach((function(t){t.e&&(t.e=r(t.e))})),e=!0):delete n[i]);return e?n:null}(n,i)))return null;var o=function(t,i,o){var u=arguments.length>3&&void 0!==arguments[3]?arguments[3]:null;return n[t]?e(i,n[t],o):r&&r[t]?r[t]:u};return r&&r.a&&n.o?function(t){var r=e(t,n.o,xt);return St.recomposeSelf(r,o("r",t,w,0)+r.a,o("k",t,k),o("s",t,k),o("t",t,k)).toString()}:function(t){return St.recomposeSelf(o("o",t,wt,null),o("r",t,w,0),o("k",t,k),o("s",t,k),o("t",t,k)).toString()}},r:_t,"#size":H,"#radius":G,_:function(t,n){if(Array.isArray(t))for(var r=0;r<t.length;r++)this[t[r]]=n;else this[t]=n}};return function(t){!function(t,n){if("function"!=typeof n&&null!==n)throw new TypeError("Super expression must either be null or a function");t.prototype=Object.create(n&&n.prototype,{constructor:{value:t,writable:!0,configurable:!0}}),n&&o(t,n)}(u,t);var r=a(u);function u(){return n(this,u),r.apply(this,arguments)}return e(u,null,[{key:"build",value:function(t){var n=l(i(u),"build",this).call(this,t,Pt);if(!n)return null;n.el,n.options;var r=n.player;return function(t,n,r){t.play()}(r),r}}]),u}(D)}));
__SVGATOR_PLAYER__.build({"root":"eaAqBZUrzME1","animations":[{"duration":3000,"direction":1,"iterations":1,"fill":1,"alternate":false,"speed":1,"elements":{"eaAqBZUrzME3":{"transform":{"keys":{"o":[{"t":0,"v":{"x":200,"y":80,"type":"corner"}},{"t":1300,"v":{"x":282.543928,"y":112.0001,"type":"corner"}},{"t":2300,"v":{"x":282.543928,"y":281.5001,"type":"corner"}},{"t":3000,"v":{"x":167.543529,"y":152.89858,"type":"corner"}}],"t":[{"t":1300,"v":{"x":-80.680044,"y":-100.826674}},{"t":2300,"v":{"x":-44.79138,"y":-182.717938}},{"t":3000,"v":{"x":46.629612,"y":-161.000096}}]}}},"eaAqBZUrzME64":{"transform":{"data":{"t":{"x":-229.586616,"y":-143.496204}},"keys":{"o":[{"t":0,"v":{"x":228.768419,"y":395.845287,"type":"corner"}},{"t":1780,"v":{"x":248.144755,"y":414.029605,"type":"corner"}},{"t":3000,"v":{"x":280.489618,"y":422,"type":"corner"}}]}}}}}],"options":{"start":"load","hover":null,"click":null,"scroll":null,"font":"embed","exportedIds":"unique","svgFormat":"animated","title":"referencesvg.svg"},"animationSettings":{"duration":3000,"direction":1,"iterations":1,"fill":1,"alternate":false,"speed":1}})]]></script></svg>